<svg xmlns="http://www.w3.org/2000/svg" xmlns:xlink="http://www.w3.org/1999/xlink" width="511" zoomAndPan="magnify" viewBox="0 0 383.25 219.749993" height="293" preserveAspectRatio="xMidYMid meet" version="1.0"><defs><g/></defs><g fill="#ffffff" fill-opacity="1"><g transform="translate(32.229006, 128.231122)"><g><path d="M 11 0 L 11 -73.171875 L 26.46875 -73.171875 L 26.46875 -43.390625 L 75.046875 -43.390625 L 75.046875 -73.171875 L 90.515625 -73.171875 L 90.515625 0 L 75.046875 0 L 75.046875 -30.828125 L 26.46875 -30.828125 L 26.46875 0 Z M 11 0 "/></g></g></g><g fill="#ffffff" fill-opacity="1"><g transform="translate(133.734634, 128.231122)"><g><path d="M 11 0 L 11 -73.171875 L 26.46875 -73.171875 L 26.46875 0 Z M 11 0 "/></g></g></g><g fill="#ffffff" fill-opacity="1"><g transform="translate(168.830826, 157.994638)"><g><path d="M 32.90625 0 L 32.90625 -60.625 L 1.25 -60.625 L 1.25 -73.171875 L 80.125 -73.171875 L 80.125 -60.625 L 48.46875 -60.625 L 48.46875 0 Z M 32.90625 0 "/></g></g></g><g fill="#ffffff" fill-opacity="1"><g transform="translate(250.09761, 157.994638)"><g><path d="M 11 0 L 11 -73.171875 L 23.5625 -73.171875 L 75.671875 -19.203125 L 73.703125 -19.203125 L 73.703125 -73.171875 L 88.640625 -73.171875 L 88.640625 0 L 75.765625 0 L 24.078125 -53.765625 L 25.953125 -53.765625 L 25.953125 0 Z M 11 0 "/></g></g></g><path stroke-linecap="butt" transform="matrix(0.748535, -0.000000000000000093, 0.000000000000000093, 0.748535, 171.111517, 55.719811)" fill="none" stroke-linejoin="miter" d="M 0.00235633 8.499561 L 224.555529 8.499561 " stroke="#ffffff" stroke-width="17" stroke-opacity="1" stroke-miterlimit="4"/><path stroke-linecap="butt" transform="matrix(0.748535, -0.000000000000000278, 0.000000000000000278, 0.748535, 42.721163, 143.301612)" fill="none" stroke-linejoin="miter" d="M 0.00199469 8.49987 L 171.524507 8.49987 " stroke="#ffffff" stroke-width="17" stroke-opacity="1" stroke-miterlimit="4"/></svg>